<?xml version="1.0" encoding="UTF-8"?>
<svg version="1.1" viewBox="0 0 1744 1484" width="1280" height="1280" xmlns="http://www.w3.org/2000/svg">
<path transform="translate(0)" d="m0 0h1744v1484h-1744z" fill="#FEFEFE"/>
<path transform="translate(1352,141)" d="m0 0h4l-1 5-12 13-13 16-12 14-10 12-11 14-13 17-12 17-14 20-8 12-9 15-13 24-7 12-6 12-25 45-10 17-2 4 23-4 63-7 8-1h292l-6 8-11 11-7 8-4 4h-2v2h-2v2l-4 1-2-3-170-1h-96l-36 3-52 6-12 2-15 26-14 27-32 72-11 25v8l13 28 10 16 14 20 12 17 9 11 9 10 9 11 10 11 7 8 9 10 7 8 64 64 11 9 17 14 16 13 14 11 13 11 14 11 14 12 10 9 11 9 15 13 11 9 16 13 20 16 34 34 5 15-1 6-4 10-6 7-18 18-9 7-16 11-12 9-15 11-26 15-17 11-11 7-29 17-21 13-15 9-22 12-12 6-36 14-59 16-27 8-21 9-27 12-36 13-22 10-19 10-27 11-16 7-19 10-10 6-25 11-15 8-17 11-10 5-6 1-3-1 2-5 26-26 23-9 9-6 11-6 9-5 26-12 19-10 8-5 32-13 24-11 24-12 41-15 36-16 11-5 55-15 32-9 29-11 25-12 18-10 28-17 11-7 19-11 24-15 8-6 11-6 14-8 16-11 1-5-4-13-1-3-4-2-34-34-14-11-16-13-11-9-15-13-11-9-11-10-11-9-13-11-14-11-17-14-16-13-14-11-13-11-13-12-54-54-7-8-9-10-9-11-11-12-9-11-10-11-14-20-16-23-10-15-3-7-2 3-15 33-14 31-20 52-16 41-19 49-13 33-19 48-8 19-12 25-18 37-11 23-16 34-17 35-11 23-9 17-8 16-15 28-7 12-6 8-13 18-12 16-30 30-10 8-14 13-8 4-9 3-14-4-4-6-8-24-4-26-9-53-10-60-5-34-1-13-1-102-5-53v-4l-5 5-8 10-10 11-11 14-13 16-12 16-11 13-11 14-10 13-14 19-13 18-36 51-11 13-8 10-11 14-12 13-9 10-9 11-9 10-7 8-9 11-12 14-12 16-7 9-9 9-6 7-5 5-9 7-8 4h-6l-1-2v-61l2-29 7-79 12-73 10-65 6-31 19-84 9-31 24-81 30-105 11-31 19-51 13-35 15-38 19-49 17-43 19-49 15-40 26-70 12-24 12-27 6-8 6-5 3-4h2l2-4 4-4h2l1-3 9-7 10-1-1 4-10 10-6 10-14 27-12 31-8 23-21 56-72 184-23 62-14 38-9 27-19 67-13 45-24 81-9 36-18 82-7 44-10 64-7 43-3 33-5 58-1 43v24l-1 6 5-5 9-11 12-13 9-11 15-16 7-8 14-17 9-11 10-13 13-18 12-17 14-20 10-13 13-18 9-12 10-12 33-42 10-13 9-11 11-12 8-10 12-14 14-19 10-19 29-29 5-3 1 1 7 71 1 102 1 17 10 65 13 73 5 35 8 24 3 6 6 2h9l9-6 8-9 13-19 8-13 12-23 12-22 17-34 11-23 16-34 14-29 11-23 15-31 12-26 11-28 16-41 18-46 16-41 22-57 11-27 38-84 11-25 3-9-13-30-9-19-11-19-4-14-2-13v-48l3-5 10-10 7-8 16-16 11-8 13-6 35-8 55-10 2-6 12-22 16-29 14-26 10-17 11-15 11-16 14-20 12-15 13-17 12-14 11-13 13-17 13-18 23-23z" fill="#020202"/>
<path transform="translate(1133,444)" d="m0 0h8l-6 11-16 28-14 24-11 23-16 36-2 4h-2l-9-20-13-23-4-12-2-12-1-40 1-2 25-6 38-7z" fill="#FEFEFE"/>
</svg>
